<svg xmlns="http://www.w3.org/2000/svg" viewBox="0 0 326 140.43"><title>McCune-Wright-Arevalo-Logo-responsive</title><path d="M58.88,138.17c.54,1.22.84,1.34,1.57,1.51v.49h-3.8v-.49c1-.17,1-.4.8-.85l-1-2.42H52l-1,2.33c-.19.53.16.77,1,.94v.49H48.9v-.49c.79-.17,1-.27,1.35-1.08l3.9-9.4.53.14a.79.79,0,0,1,.52.49Zm-2.74-2.43-2-4.65-1.88,4.65Z" style="fill:#345073"/><path d="M73.94,131.31H73.6l-.23-.57a.78.78,0,0,0-.79-.53H70.06v8.71c0,.63.34.66,1,.85v.4H67.58v-.4c.61-.19,1-.22,1-.85v-8.71H66a.82.82,0,0,0-.8.53l-.23.57h-.35l.12-1.58a.34.34,0,0,1,.37-.39h8.34c.22,0,.36.13.38.39Z" style="fill:#345073"/><path d="M88.66,131.31h-.35l-.22-.57a.8.8,0,0,0-.79-.53H84.77v8.71c0,.63.35.66,1,.85v.4H82.3v-.4c.61-.19,1-.22,1-.85v-8.71H80.73a.85.85,0,0,0-.81.53l-.22.57h-.35l.12-1.58a.34.34,0,0,1,.37-.39h8.33a.37.37,0,0,1,.39.35v0Z" style="fill:#345073"/><path d="M99.3,140.43c-3,0-5.15-2.58-5.15-5.77s2.17-5.6,5.15-5.6,5.14,2.38,5.14,5.6S102.3,140.43,99.3,140.43Zm3.47-5.24c0-3.32-1.83-5.43-3.47-5.43-2,0-3.45.79-3.45,4.38s1.76,5.49,3.41,5.49c2.08,0,3.51-.9,3.51-4.44Z" style="fill:#345073"/><path d="M120,140.17h-1.8a3.94,3.94,0,0,1-2-2.8c-.37-1.59-.77-2.2-2.32-2.2h-1.34v3.75c0,.63.35.66.94.85v.4h-3.35v-.4c.61-.19.92-.22.92-.85v-8.11c0-.61-.31-.87-.92-1.07v-.4h4.55c2.44,0,3.91,1.24,3.91,3,0,1.32-1,2.37-2.84,2.77,1.51.21,1.83,1.06,2.14,2.16s.89,2.32,1.74,2.41H120Zm-5.2-5.58c1.69,0,2.06-1.17,2.06-2.28S116.34,130,115,130h-2.44v4.62Z" style="fill:#345073"/><path d="M136,129.74c-.68.2-1,.46-1,.86v9.57c0,.18-.19.18-.33,0l-7.38-8.94v7.67c0,.4.34.66,1,.85v.42h-2.81v-.42c.68-.19,1-.45,1-.85v-8.3c0-.4-.33-.66-1-.86v-.4h2.37l6.21,7.85V130.6c0-.4-.31-.66-1-.86v-.4h3Z" style="fill:#345073"/><path d="M150.29,138.15a7.23,7.23,0,0,0-.56,1.62.53.53,0,0,1-.52.4h-7.68v-.5c.61-.19.93-.25.93-.86v-8.16c0-.61-.32-.66-.93-.85v-.46h7.62c.23,0,.3.06.3.32v1.74H149l-.27-.57c-.22-.49-.64-.72-1.39-.72H144v4.17h3.15c.58,0,.67-.4.89-1h.32V136H148c-.22-.54-.31-1-.89-1H144v4.45h4c.8,0,.84-.25,1.17-.68l.45-.58Z" style="fill:#345073"/><path d="M166,129.34v.47c-.74.09-1,.4-1.47,1l-3,4.14V139c0,.41.65.49,1.28.58v.52h-3.94v-.52c.62-.09,1.29-.17,1.29-.58v-3.66l-2.92-4.13c-.69-1-.85-1.38-1.62-1.47v-.47h3.47v.47c-.5.09-.83.3-.64.58l2.74,3.89,2.61-3.72c.28-.42-.16-.66-.83-.75v-.47Z" style="fill:#345073"/><path d="M178.89,132.6c-.23,0-.37,0-.42-.21l-.19-.69a3,3,0,0,0-2.79-2,2.13,2.13,0,0,0-2.27,2,1.31,1.31,0,0,0,0,.28c.15,1.15,1.39,1.52,2.4,1.84s3.89.88,4.14,3.15-2.11,3.45-4,3.45-2.3-1-3.38-.59l-.91-2.74.49-.15a.41.41,0,0,1,.54.17l0,0c.12.23.26.47.38.72a3.13,3.13,0,0,0,2.88,1.73c1.17,0,2.58-.42,2.41-2.08-.14-1.45-1.63-1.78-2.92-2.22s-3.14-.9-3.43-2.87c-.21-1.55,1.11-3.4,3.7-3.4,2.23,0,2.61,1,3.67,1.25l.23,2.22Z" style="fill:#345073"/><path d="M203.53,138.17c.54,1.22.83,1.34,1.57,1.51v.49h-3.81v-.49c1-.17,1-.4.81-.85l-1-2.42h-4.45l-.94,2.33c-.19.53.15.77,1,.94v.49h-3.14v-.49c.79-.17,1-.27,1.34-1.08l3.91-9.4.52.14a.81.81,0,0,1,.53.49Zm-2.74-2.43-2-4.65-1.88,4.65Z" style="fill:#345073"/><path d="M218.59,131.31h-.35l-.22-.57a.8.8,0,0,0-.79-.53H214.7v8.71c0,.63.35.66,1,.85v.4h-3.43v-.4c.61-.19,1-.22,1-.85v-8.71h-2.54a.82.82,0,0,0-.8.53l-.23.57h-.35l.12-1.58a.34.34,0,0,1,.37-.39h8.33a.37.37,0,0,1,.39.35v0Z" style="fill:#345073"/><path d="M240.51,139.77a.56.56,0,0,1-.52.4h-7.81v-.4c.61-.19.95-.22.95-.85v-8.27c0-.61-.34-.66-.95-.85v-.46h3.4v.46c-.61.19-1,.24-1,.85v8.09c0,.53.28.72.61.7l3.36-.14c.75,0,1.14-.05,1.4-.54l.29-.56h.65Z" style="fill:#345073"/><path d="M256.17,138.17c.54,1.22.84,1.34,1.57,1.51v.49h-3.8v-.49c1-.17,1-.4.8-.85l-1-2.42H249.3l-1,2.33c-.19.53.16.77,1,.94v.49h-3.1v-.49c.78-.17,1-.27,1.34-1.08l3.91-9.4.52.14a.77.77,0,0,1,.52.49Zm-2.74-2.43-2-4.65-1.89,4.65Z" style="fill:#345073"/><path d="M277.1,129.34v.47a1.26,1.26,0,0,0-1.19,1l-3.31,9.45h-.21a.57.57,0,0,1-.56-.42l-2.68-6.9-2.39,7.32h-.2a.55.55,0,0,1-.55-.42l-3.37-8.6c-.45-1.15-.75-1.3-1.5-1.43v-.47h3.33v.47c-.43.13-.7.25-.59.54l2.89,7.52,2-6-.25-.63c-.45-1.15-.75-1.3-1.5-1.43v-.47h3.33v.47c-.43.13-.66.37-.59.54l2.88,7.52,2.53-7.34c.14-.42-.26-.59-.93-.72v-.47Z" style="fill:#345073"/><path d="M17.85,99.72c-.85.26-1.16.62-1.16,1.45v11c0,.84.31.93,1.16,1.19v.55h-4.4v-.55c.76-.26,1.21-.35,1.21-1.19V101.7L9.31,112.62c-.31.62-.53.62-.86,0l-6-11v10.56c0,.84.45.93,1.26,1.19v.55H0v-.55c.86-.26,1.29-.35,1.29-1.19v-11c0-.83-.43-1.19-1.29-1.45v-.57H3.52l5.86,10.78,5.38-10.78h3.09Z" style="fill:#ad976e"/><path d="M28.94,111.89c-.45.88-1.61,2.23-4.42,2.23-2.57,0-4.76-2.26-4.76-5.57,0-3.59,2.28-5.57,4.9-5.57,2.79,0,4.17,1.53,4.17,3a.89.89,0,0,1-1,.83c-.64,0-1-.24-1-.76,0-1.36.08-2.14-1.8-2.14-2.36,0-3.19,1.14-3.19,4.12,0,2.45,1.42,4.85,3.73,4.88,1.69,0,1.91-.69,2.53-1.48a.26.26,0,0,1,.35-.12.28.28,0,0,1,.12.12Z" style="fill:#ad976e"/><path d="M43.7,104.05a.38.38,0,0,1-.51-.17l0-.09-.34-.86a4.67,4.67,0,0,0-4.45-3.18c-2.45,0-4.83,1.9-4.83,6,0,4.5,2.78,7.35,5.31,7.35a4.51,4.51,0,0,0,3.9-2.35c.36-.53.45-.88.79-.88a1.41,1.41,0,0,1,.78.45c.12.24-.07.55-.38,1a6,6,0,0,1-5.55,2.9c-4,0-7.14-3.52-7.14-8,0-4.15,3-7.55,6.88-7.55a5.56,5.56,0,0,1,4.36,2c.4,0,.59-.55.69-1.17a.42.42,0,0,1,.44-.4h.49l.26,4.67Z" style="fill:#ad976e"/><path d="M60.48,99.75c-.59.09-1.07.21-1.07.76v7.38c0,3.83-2,6.28-5.5,6.28-4.07,0-6.16-2.45-6.16-6.24v-7.42c0-.55-.45-.67-1-.76v-.6H51v.6c-.6.09-1.1.21-1.1.76v6.35c0,4.53,1.48,6.29,4,6.29,2.1,0,4.1-1.29,4.1-5.15v-7.5c0-.55-.45-.67-1.12-.76v-.6h3.57Z" style="fill:#ad976e"/><path d="M76.88,99.7c-.92.26-1.38.62-1.38,1.16v13.07c0,.24-.26.24-.45,0L65,101.72v10.47c0,.55.45.91,1.36,1.17v.57H62.51v-.57c.92-.26,1.38-.62,1.38-1.17V100.86c0-.54-.46-.9-1.38-1.16v-.55h3.23l8.48,10.71v-9c0-.54-.43-.9-1.38-1.16v-.55h4Z" style="fill:#ad976e"/><path d="M90.74,111.17a10.93,10.93,0,0,0-.77,2.21.72.72,0,0,1-.71.55H78.79v-.69c.83-.26,1.26-.33,1.26-1.16V100.94c0-.84-.43-.91-1.26-1.17v-.62h10.4c.31,0,.4.07.4.43V102H88.9l-.35-.79a1.84,1.84,0,0,0-1.91-1H82.19v5.69H86.5c.78,0,.9-.55,1.21-1.31h.43v3.64h-.43c-.31-.74-.43-1.36-1.21-1.36H82.19v6.07h5.45c1.1,0,1.14-.34,1.6-.93l.62-.79Z" style="fill:#ad976e"/><path d="M131.32,99.15v.64a1.68,1.68,0,0,0-1.62,1.36l-4.52,12.9h-.29a.79.79,0,0,1-.76-.57l-3.66-9.43-3.27,10h-.26a.77.77,0,0,1-.76-.57l-4.59-11.74c-.62-1.57-1-1.78-2-1.95v-.64h4.55v.64c-.6.17-1,.34-.81.74l4,10.26L120,102.6l-.33-.86c-.62-1.57-1-1.78-2-1.95v-.64h4.55v.64c-.6.17-.9.5-.81.74l3.93,10.26,3.45-10c.19-.57-.36-.81-1.26-1v-.64Z" style="fill:#ad976e"/><path d="M146.51,113.93H144a5.36,5.36,0,0,1-2.76-3.83c-.5-2.17-1.05-3-3.17-3h-1.83v5.12c0,.86.48.9,1.28,1.16v.55H133v-.55c.84-.26,1.27-.3,1.27-1.16V101.15c0-.83-.43-1.19-1.27-1.45v-.55h6.22c3.33,0,5.33,1.69,5.33,4,0,1.81-1.36,3.23-3.88,3.78,2.07.29,2.5,1.45,2.93,3s1.21,3.17,2.38,3.29h.55Zm-7.1-7.61c2.31,0,2.81-1.6,2.81-3.12s-.74-3.19-2.62-3.19h-3.33v6.31Z" style="fill:#ad976e"/><path d="M151.86,112.22c0,.86.5.9,1.33,1.16v.55h-4.66v-.55c.83-.26,1.31-.3,1.31-1.16V100.94c0-.84-.48-.91-1.31-1.17v-.62h4.66v.62c-.83.26-1.33.33-1.33,1.17Z" style="fill:#ad976e"/><path d="M167.17,104.22c-.12-.26-.24-.59-.46-1.09a5,5,0,0,0-4.61-3.36c-2.31,0-4.62,1.67-4.62,6.43s2.26,7,4.85,7c2,0,4-1.45,4-2.4v-2.1a.71.71,0,0,0-.65-.77H164.5v-1h5.33v1h-.74a.7.7,0,0,0-.76.63.66.66,0,0,0,0,.14v5.11c0,.31-.64.41-.72.12l-.57-1.85a6.5,6.5,0,0,1-4.69,2.09c-4.07,0-7.16-3.14-7.16-7.85,0-4.34,3-7.55,6.93-7.55a5.09,5.09,0,0,1,4.35,2.14c.48,0,.62-.83.69-1.93H168l.33,4.76Z" style="fill:#ad976e"/><path d="M186.42,99.77c-.83.26-1.26.33-1.26,1.17v11.28c0,.86.43.9,1.26,1.16v.55h-4.64v-.55c.83-.26,1.24-.3,1.24-1.16v-5.29h-7.81v5.29c0,.86.4.9,1.24,1.16v.55h-4.64v-.55c.83-.26,1.26-.3,1.26-1.16V100.94c0-.84-.43-.91-1.26-1.17v-.62h4.64v.62c-.84.26-1.24.33-1.24,1.17v5H183v-5c0-.84-.41-.91-1.24-1.17v-.62h4.64Z" style="fill:#ad976e"/><path d="M200.87,101.84h-.48l-.31-.79a1.08,1.08,0,0,0-1.07-.71h-3.45v11.88c0,.86.48.9,1.31,1.16v.55h-4.69v-.55c.83-.26,1.33-.3,1.33-1.16V100.34H190a1.14,1.14,0,0,0-1.1.71l-.31.79h-.47l.17-2.17a.46.46,0,0,1,.5-.52H200.2a.5.5,0,0,1,.53.47v0Z" style="fill:#ad976e"/><path d="M233.17,111.2c.74,1.66,1.14,1.83,2.14,2.07v.66h-5.19v-.66c1.41-.24,1.38-.55,1.1-1.17l-1.41-3.31h-6.07L222.46,112c-.26.71.21,1,1.38,1.29V114h-4.29v-.66c1.08-.24,1.38-.38,1.84-1.48L226.72,99l.71.19a1.09,1.09,0,0,1,.72.67Zm-3.74-3.31-2.73-6.36-2.58,6.36Z" style="fill:#ad976e"/><path d="M251.09,113.93h-2.47a5.31,5.31,0,0,1-2.76-3.83c-.5-2.17-1.05-3-3.17-3h-1.83v5.12c0,.86.47.9,1.28,1.16v.55h-4.57v-.55c.84-.26,1.26-.3,1.26-1.16V101.15c0-.83-.42-1.19-1.26-1.45v-.55h6.22c3.33,0,5.33,1.69,5.33,4,0,1.81-1.36,3.23-3.88,3.78,2.07.29,2.5,1.45,2.93,3s1.21,3.17,2.38,3.29h.54ZM244,106.32c2.31,0,2.81-1.6,2.81-3.12s-.74-3.19-2.62-3.19h-3.33v6.31Z" style="fill:#ad976e"/><path d="M265,111.17a10.16,10.16,0,0,0-.77,2.21.72.72,0,0,1-.71.55H253v-.69c.83-.26,1.26-.33,1.26-1.16V100.94c0-.84-.43-.91-1.26-1.17v-.62h10.4c.31,0,.4.07.4.43V102h-.69l-.35-.79a1.84,1.84,0,0,0-1.91-1H256.4v5.69h4.31c.78,0,.9-.55,1.21-1.31h.43v3.64h-.43c-.31-.74-.43-1.36-1.21-1.36H256.4v6.07h5.45c1.1,0,1.14-.34,1.6-.93l.62-.79Z" style="fill:#ad976e"/><path d="M281.87,99.79c-1,.1-1.21.36-1.62,1.29l-5.54,13h-.29a.76.76,0,0,1-.76-.57l-5.12-11.81c-.64-1.54-1-1.78-2.05-1.88v-.64h5v.64c-1,.1-1.42.26-1.26.67l4.53,10.59,4.42-10.35c.24-.57-.42-.81-1.33-.91v-.64h4Z" style="fill:#ad976e"/><path d="M294.53,111.2c.74,1.66,1.15,1.83,2.14,2.07v.66h-5.18v-.66c1.4-.24,1.38-.55,1.09-1.17l-1.4-3.31h-6.07L283.82,112c-.26.71.21,1,1.38,1.29V114h-4.28v-.66c1.07-.24,1.38-.38,1.83-1.48L288.08,99l.72.19a1.1,1.1,0,0,1,.71.67Zm-3.73-3.31-2.74-6.36-2.57,6.36Z" style="fill:#ad976e"/><path d="M309.81,113.38a.75.75,0,0,1-.71.55H298.44v-.55c.83-.26,1.3-.3,1.3-1.16V100.94c0-.84-.47-.91-1.3-1.17v-.62h4.64v.62c-.84.26-1.31.33-1.31,1.17v11c0,.71.38,1,.83,1l4.6-.19c1,0,1.54-.07,1.9-.74l.4-.76h.89Z" style="fill:#ad976e"/><path d="M319,114.29c-4.07,0-7-3.52-7-7.88s3-7.64,7-7.64,7,3.24,7,7.64S323.07,114.29,319,114.29Zm4.73-7.17c0-4.52-2.49-7.4-4.73-7.4-2.72,0-4.72,1.07-4.72,6,0,4.71,2.41,7.49,4.67,7.49,2.81,0,4.76-1.21,4.76-6.09Z" style="fill:#ad976e"/><rect x="99.57" y="105.41" width="4.13" height="4.13" style="fill:#ad976e"/><rect x="208.87" y="105.41" width="4.13" height="4.13" style="fill:#ad976e"/><path d="M102,59.69c-2,12.54-10.22,13.47-10.22,13.47h20.43S104,72.23,102,59.69Z" style="fill:#345073"/><polygon points="139.44 73.16 142.03 73.16 169.09 24.9 167.09 23.77 148.72 56.57 119.67 0 99.14 0 103.37 2.9 139.44 73.16" style="fill:#345073"/><path d="M234.25,73.15,196.69,0H176.17l4.21,2.89,18.24,35.52H184S200.37,44,209.08,58.78l7.38,14.37Z" style="fill:#345073"/><polygon points="186.86 56.98 157.6 0 137.07 0 141.3 2.9 177.36 73.15 186.86 56.98" style="fill:#ad976e"/></svg>